<?xml version="1.0" encoding="utf-8"?>
<!-- Generator: Adobe Illustrator 16.0.4, SVG Export Plug-In . SVG Version: 6.00 Build 0)  -->
<!DOCTYPE svg PUBLIC "-//W3C//DTD SVG 1.1//EN" "http://www.w3.org/Graphics/SVG/1.1/DTD/svg11.dtd">
<svg version="1.1" id="Layer_1" xmlns="http://www.w3.org/2000/svg" xmlns:xlink="http://www.w3.org/1999/xlink" x="0px" y="0px"
	 width="649.054px" height="232.139px" viewBox="0 0 649.054 232.139" enable-background="new 0 0 649.054 232.139"
	 xml:space="preserve">
<path id="path3716" fill="#E16426" d="M131.992,0.002c-1.056,0.029-2.198,0.329-3.375,1.009
	c-3.226,7.531-11.163,24.769-13.226,29.245c-2.362-5.129-9.815-21.3-12.955-28.624c-7.531-4.348-12.8,6.709-12.8,6.709l9.155,22.574
	l-3.065,9.734l8.96,8.534c-10.755,1.848-20.644,6.229-29.051,12.529l0.31-12.955l-9.037-4.733l-9.503-22.457
	c0,0-3.187-1.129-6.555-0.97c-2.02,0.095-4.113,0.661-5.583,2.211c-0.727,0.766-1.318,1.791-1.67,3.103
	c3.043,7.606,9.62,25.396,11.327,30.02c-5.297-1.955-22.002-8.095-29.4-11.052c-8.4,2.25-4.306,13.768-4.306,13.768l22.419,9.503
	l4.731,9.037l12.491-0.309c-5.92,8.322-10.002,18.017-11.676,28.507l-8.533-8.96l-9.734,3.066L8.342,90.335
	c0,0-11.059,5.269-6.711,12.8c1.593,0.683,3.593,1.567,5.817,2.561c8.007,3.576,18.795,8.545,22.806,10.394
	c-4.476,2.061-21.714,9.999-29.244,13.226c-0.68,1.176-0.979,2.32-1.009,3.376c-0.15,5.697,7.72,9.464,7.72,9.464l22.573-9.154
	l9.734,3.021l9.077-9.539c1.681,10.865,5.964,20.867,12.179,29.4l-12.412-0.311l-4.732,9.039l-22.418,9.502
	c0,0-4.095,11.556,4.304,13.805c7.4-2.957,24.104-9.135,29.4-11.092c-1.706,4.623-8.283,22.413-11.325,30.021
	c0.352,1.312,0.94,2.337,1.667,3.104c3.922,4.135,12.14,1.242,12.14,1.242l9.501-22.419l8.999-4.771l-0.271-13.228
	c8.665,6.365,18.861,10.749,29.944,12.41l-9.854,9.389l2.987,9.464l-8.921,21.992c0,0,5.157,10.749,12.489,6.516
	c3.056-7.128,10.306-22.854,12.605-27.848c2.006,4.358,9.735,21.139,12.876,28.468c1.146,0.665,2.23,0.942,3.259,0.97
	c5.545,0.147,9.231-7.486,9.231-7.486l-8.921-21.99l2.949-9.465l-10.24-9.812c11.851-1.473,22.793-6,31.959-12.8l-0.35,13.693
	l8.843,4.573l9.231,21.836c0,0,11.229,3.992,13.42-4.187c-2.882-7.2-8.878-23.468-10.781-28.624
	c4.5,1.664,21.838,8.092,29.243,11.054c1.278-0.34,2.28-0.92,3.026-1.628c4.025-3.819,1.202-11.829,1.202-11.829l-21.877-9.27
	l-4.615-8.768l-14.234,0.311c6.978-8.914,11.801-19.571,13.614-31.224l9.077,9.501l9.734-3.021l22.573,9.154
	c0,0,7.871-3.768,7.719-9.464c-0.029-1.056-0.329-2.2-1.009-3.376c-7.528-3.227-24.768-11.165-29.244-13.226
	c5.128-2.362,21.3-9.816,28.624-12.955c4.349-7.531-6.711-12.8-6.711-12.8l-22.573,9.156l-9.734-3.066l-8.495,8.921
	c-1.738-10.833-6.085-20.821-12.335-29.323l13.266,0.312l4.731-9.038l22.458-9.463c0,0,2.894-8.255-1.242-12.178
	c-0.765-0.728-1.79-1.317-3.102-1.668c-7.606,3.042-25.397,9.618-30.02,11.326c1.956-5.299,8.093-22.003,11.053-29.4
	c-1.108-4.135-4.475-5.254-7.602-5.314c-0.447-0.01-0.89,0.01-1.317,0.038c-2.676,0.179-4.85,0.971-4.85,0.971l-9.502,22.458
	l-9.037,4.692l0.31,12.45c-8.683-6.328-18.904-10.67-29.981-12.294l9.309-8.884l-3.025-9.734l9.153-22.573
	C141.455,7.721,137.69-0.15,131.992,0.002z M122.528,67.22c8.705,1.114,16.694,4.478,23.35,9.502L134.939,87.62
	c-3.704-2.532-7.886-4.373-12.412-5.313V67.22z M108.565,67.374v14.934c-4.397,0.907-8.472,2.664-12.101,5.081L86.108,77.031
	C92.522,72.083,100.171,68.664,108.565,67.374z M155.691,86.65c4.826,6.483,8.113,14.204,9.269,22.614h-15.515
	c-0.868-4.185-2.528-8.105-4.769-11.598L155.691,86.65z M76.373,87.039l10.24,10.24c-2.37,3.589-4.104,7.648-5.004,11.986H67.412
	C68.544,101.021,71.708,93.442,76.373,87.039z M115.546,100.225c8.937,0,15.98,7.085,15.98,16.019
	c0,8.938-7.043,15.979-15.98,15.979c-8.935,0-16.019-7.042-16.019-15.979C99.527,107.31,106.611,100.225,115.546,100.225z
	 M67.451,123.226h14.157c0.94,4.526,2.782,8.748,5.313,12.451L76.838,145.76C71.968,139.308,68.661,131.629,67.451,123.226z
	 M149.445,123.226h15.438c-1.245,8.635-4.678,16.517-9.775,23.08l-10.82-10.82C146.748,131.829,148.521,127.67,149.445,123.226z
	 M134.629,145.064l10.743,10.743c-6.602,4.845-14.482,8.016-23.038,9.076v-14.701C126.802,149.281,130.95,147.52,134.629,145.064z
	 M96.968,145.375c3.548,2.278,7.493,3.947,11.753,4.808v14.546c-8.179-1.232-15.668-4.406-21.993-9.116L96.968,145.375z"/>
<g>
	<path fill="#575757" d="M273.222,170.913V61.227h15.669v47.009l23.506-47.009h19.586l-23.565,43.09l27.484,66.596h-19.591
		l-19.584-50.924l-7.837,15.669v35.255H273.222z"/>
	<path fill="#575757" d="M341.654,170.913V61.227h11.751l27.425,67.818V61.227h15.668v109.686h-11.14l-28.033-72.962v72.962H341.654
		z"/>
	<path fill="#575757" d="M412.17,170.913V61.227h43.092v11.751h-27.421v35.258h19.587v11.753h-19.587v39.173h27.421v11.751H412.17z"
		/>
	<path fill="#575757" d="M458.567,170.913l19.466-56.863l-19.589-52.823h15.669l15.671,43.09l15.67-43.09h15.668l-19.586,52.578
		l19.342,57.108h-15.545l-15.549-47.009l-15.548,47.009H458.567z"/>
	<path fill="#575757" d="M526.451,170.913v-15.669h15.67v15.669H526.451z"/>
	<path fill="#575757" d="M546.035,170.913v-11.751c3.385,0,6.033-0.185,7.928-0.551c1.896-0.367,3.459-1.153,4.684-2.355
		c1.225-1.205,2.037-2.774,2.445-4.714c0.408-1.938,0.611-4.622,0.611-8.05V61.227h15.676v82.265c0,4.98-0.332,9.091-0.982,12.335
		c-0.652,3.242-1.848,6.05-3.582,8.417c-1.732,2.365-4.141,4.066-7.223,5.109c-3.08,1.042-6.988,1.56-11.721,1.56H546.035z"/>
	<path fill="#575757" d="M621.631,172.017c-9.873,0-17.416-2.898-22.617-8.693c-5.203-5.793-8.111-13.708-8.721-23.751l15.672-3.915
		c0.773,15.669,5.996,23.504,15.666,23.504c7.838,0,11.754-3.918,11.754-11.75c0-2.328-0.318-4.48-0.949-6.461
		c-0.635-1.979-1.604-3.795-2.91-5.445c-1.305-1.654-2.486-2.979-3.547-3.98c-1.062-0.999-2.512-2.232-4.348-3.702l-19.586-15.671
		c-3.592-2.814-6.459-6.395-8.6-10.742c-2.145-4.345-3.217-9.292-3.217-14.842c0-8.08,2.514-14.507,7.531-19.282
		c5.02-4.775,11.67-7.161,19.955-7.161c8.893,0,15.967,2.173,21.207,6.519c5.242,4.347,8.479,10.497,9.703,18.455
		c0.121,0.857,0.266,2.041,0.43,3.55l-15.67,3.917c-0.041-0.693-0.145-1.734-0.309-3.122c-0.695-4.979-2.254-8.967-4.684-11.967
		c-2.424-2.999-5.988-4.499-10.678-4.499c-3.758,0-6.654,1.052-8.689,3.152c-2.045,2.102-3.061,5.03-3.061,8.784
		c0,6.164,2.607,11.323,7.832,15.487l19.588,15.67c10.441,8.448,15.67,18.544,15.67,30.298c0,8.039-2.482,14.32-7.439,18.853
		C636.658,169.75,629.996,172.017,621.631,172.017z"/>
</g>
</svg>
